<mxfile host="Electron" agent="Mozilla/5.0 (X11; Linux x86_64) AppleWebKit/537.36 (KHTML, like Gecko) draw.io/24.7.8 Chrome/128.0.6613.36 Electron/32.0.1 Safari/537.36" version="24.7.8">
  <diagram name="Страница — 1" id="-7iinr9FQo9lgZhA_vXO">
    <mxGraphModel dx="684" dy="283" grid="1" gridSize="10" guides="1" tooltips="1" connect="1" arrows="1" fold="1" page="1" pageScale="1" pageWidth="827" pageHeight="1169" math="0" shadow="0">
      <root>
        <mxCell id="0" />
        <mxCell id="1" parent="0" />
        <mxCell id="To64jtl__Oc4jpR3MfXC-2" value="&lt;div&gt;&lt;font color=&quot;#425dc0&quot;&gt;OPTIMIZER_DEBUG&lt;/font&gt;&lt;/div&gt;&lt;div&gt;&lt;font color=&quot;#425dc0&quot;&gt;GEQO_DEBUG&lt;/font&gt;&lt;/div&gt;" style="text;html=1;align=left;verticalAlign=top;whiteSpace=wrap;rounded=0;fontFamily=Courier New;" parent="1" vertex="1">
          <mxGeometry x="375" y="270" width="131" height="100" as="geometry" />
        </mxCell>
        <mxCell id="To64jtl__Oc4jpR3MfXC-5" value="Макросы" style="text;html=1;align=center;verticalAlign=middle;whiteSpace=wrap;rounded=0;" parent="1" vertex="1">
          <mxGeometry x="384.5" y="240" width="90" height="30" as="geometry" />
        </mxCell>
        <mxCell id="To64jtl__Oc4jpR3MfXC-6" value="" style="endArrow=none;html=1;rounded=0;exitX=0.999;exitY=0.915;exitDx=0;exitDy=0;exitPerimeter=0;" parent="1" edge="1">
          <mxGeometry width="50" height="50" relative="1" as="geometry">
            <mxPoint x="370.0000000000001" y="373.95000000000005" as="sourcePoint" />
            <mxPoint x="370.22" y="240" as="targetPoint" />
          </mxGeometry>
        </mxCell>
        <mxCell id="W0IxdtLmUjodAu66150V-1" value="&lt;font color=&quot;#425dc0&quot;&gt;pprint&lt;/font&gt;&lt;span style=&quot;background-color: initial; font-family: Helvetica;&quot;&gt;&amp;nbsp;&lt;/span&gt;&lt;span style=&quot;background-color: initial; font-family: Helvetica;&quot;&gt;-&lt;/span&gt;&lt;span style=&quot;background-color: initial; font-family: Helvetica;&quot;&gt;&amp;nbsp;&lt;/span&gt;&lt;font style=&quot;font-size: 10px;&quot; face=&quot;Helvetica&quot;&gt;любой Node&lt;/font&gt;&lt;div&gt;&lt;font face=&quot;Helvetica&quot;&gt;&lt;br&gt;&lt;/font&gt;&lt;div&gt;&lt;font color=&quot;#425dc0&quot;&gt;print_rt&lt;/font&gt;&lt;font face=&quot;Helvetica&quot;&gt;&amp;nbsp;- &lt;font style=&quot;font-size: 10px;&quot;&gt;Range Table&lt;/font&gt;&lt;/font&gt;&lt;/div&gt;&lt;div&gt;&lt;font color=&quot;#425dc0&quot;&gt;print_expr&lt;/font&gt;&lt;span style=&quot;font-family: Helvetica; background-color: initial;&quot;&gt;&amp;nbsp;&lt;/span&gt;&lt;span style=&quot;background-color: initial; font-family: Helvetica;&quot;&gt;-&lt;/span&gt;&lt;span style=&quot;background-color: initial; font-family: Helvetica;&quot;&gt;&amp;nbsp;&lt;/span&gt;&lt;span style=&quot;background-color: initial; font-family: Helvetica;&quot;&gt;&lt;font style=&quot;font-size: 10px;&quot;&gt;выражение&lt;/font&gt;&lt;/span&gt;&lt;/div&gt;&lt;div&gt;&lt;font color=&quot;#425dc0&quot;&gt;print_pathkeys&lt;/font&gt;&lt;span style=&quot;background-color: initial; font-family: Helvetica;&quot;&gt;&amp;nbsp;-&amp;nbsp;&lt;/span&gt;&lt;span style=&quot;font-family: Helvetica; font-size: 10px; background-color: initial;&quot;&gt;столбцы&amp;nbsp;&lt;/span&gt;&lt;span style=&quot;background-color: initial; font-family: Helvetica; font-size: 10px;&quot;&gt;сортировки&lt;/span&gt;&lt;/div&gt;&lt;/div&gt;" style="text;html=1;align=left;verticalAlign=top;whiteSpace=wrap;rounded=0;fontFamily=Courier New;" parent="1" vertex="1">
          <mxGeometry x="149" y="270" width="231" height="100" as="geometry" />
        </mxCell>
        <mxCell id="3sdtQAV-3DFzt52qT0kO-1" value="Отображение узлов" style="text;html=1;align=center;verticalAlign=middle;whiteSpace=wrap;rounded=0;" parent="1" vertex="1">
          <mxGeometry x="180" y="240" width="130" height="30" as="geometry" />
        </mxCell>
        <mxCell id="c8EVHCb-xVebOPg2Qrqw-2" value="" style="endArrow=none;html=1;rounded=0;" parent="1" edge="1">
          <mxGeometry width="50" height="50" relative="1" as="geometry">
            <mxPoint x="504" y="375" as="sourcePoint" />
            <mxPoint x="504" y="240" as="targetPoint" />
          </mxGeometry>
        </mxCell>
        <mxCell id="c8EVHCb-xVebOPg2Qrqw-3" value="&lt;div&gt;&lt;span style=&quot;background-color: initial;&quot;&gt;&lt;font color=&quot;#425dc0&quot;&gt;debug_print_parse&lt;/font&gt;&lt;/span&gt;&lt;span style=&quot;background-color: initial; color: rgb(84, 84, 84);&quot;&gt;&amp;nbsp; &amp;nbsp;= &lt;/span&gt;&lt;span style=&quot;background-color: initial;&quot;&gt;&lt;font color=&quot;#bf0707&quot;&gt;on&lt;/font&gt;&lt;/span&gt;&lt;br&gt;&lt;/div&gt;&lt;div&gt;&lt;font color=&quot;#425dc0&quot;&gt;debug_print_rewrite&lt;/font&gt;&lt;span style=&quot;color: rgb(84, 84, 84);&quot;&gt; = &lt;/span&gt;&lt;font color=&quot;#bf0707&quot;&gt;on&lt;/font&gt;&lt;font color=&quot;#545454&quot;&gt;&lt;br&gt;&lt;/font&gt;&lt;/div&gt;&lt;div&gt;&lt;font color=&quot;#425dc0&quot;&gt;debug_print_plan&lt;/font&gt;&lt;span style=&quot;color: rgb(84, 84, 84);&quot;&gt;&amp;nbsp; &amp;nbsp; = &lt;/span&gt;&lt;font color=&quot;#bf0707&quot;&gt;on&lt;br&gt;&lt;/font&gt;&lt;font color=&quot;#425dc0&quot;&gt;debug_pretty_print&amp;nbsp;&amp;nbsp;&lt;/font&gt;&lt;span style=&quot;color: rgb(84, 84, 84);&quot;&gt;=&amp;nbsp;&lt;/span&gt;&lt;font color=&quot;#bf0707&quot;&gt;on&lt;/font&gt;&lt;font color=&quot;#545454&quot;&gt;&lt;br&gt;&lt;/font&gt;&lt;/div&gt;" style="text;html=1;align=left;verticalAlign=top;whiteSpace=wrap;rounded=0;fontFamily=Courier New;" parent="1" vertex="1">
          <mxGeometry x="510" y="270" width="200" height="90" as="geometry" />
        </mxCell>
        <mxCell id="c8EVHCb-xVebOPg2Qrqw-4" value="postgresql.conf" style="text;html=1;align=center;verticalAlign=middle;whiteSpace=wrap;rounded=0;" parent="1" vertex="1">
          <mxGeometry x="550" y="240" width="90" height="30" as="geometry" />
        </mxCell>
      </root>
    </mxGraphModel>
  </diagram>
</mxfile>
